<?xml version="1.0" encoding="UTF-8" standalone="no"?>
<svg width="172px" height="70px" viewBox="0 0 172 70" version="1.1" xmlns="http://www.w3.org/2000/svg" xmlns:xlink="http://www.w3.org/1999/xlink" xmlns:sketch="http://www.bohemiancoding.com/sketch/ns">
    <!-- Generator: Sketch 3.1.1 (8761) - http://www.bohemiancoding.com/sketch -->
    <title>Imported Layers@3x</title>
    <desc>Created with Sketch.</desc>
    <defs></defs>
    <g id="Landing-GOBMX" stroke="none" stroke-width="1" fill="none" fill-rule="evenodd" sketch:type="MSPage">
        <g id="Busqueda-de-archivo" sketch:type="MSArtboardGroup" transform="translate(-562.000000, -1830.000000)">
            <g id="Footer-Sencillo-2" sketch:type="MSLayerGroup" transform="translate(0.000000, 1802.000000)">
                <g id="Imported-Layers" transform="translate(562.000000, 29.000000)" sketch:type="MSShapeGroup">
                    <path d="M95.4643,31.100512 L99.0597615,31.100512 L100.221423,23.112689 L100.2588,23.112689 L103.449069,31.100512 L104.887254,31.100512 L108.223062,23.112689 L108.259446,23.112689 L109.274246,31.100512 L112.887569,31.100512 L110.787185,17.2239187 L107.190731,17.2239187 L104.204215,24.6409234 L101.382423,17.2239187 L97.8243385,17.2239187 L95.4643,31.100512 L95.4643,31.100512 Z M120.6322,13.6002632 L118.586062,12.1261722 L115.985885,15.2912584 L117.479638,16.3774306 L120.6322,13.6002632 L120.6322,13.6002632 Z M122.328715,20.2800574 L122.328715,17.2239187 L114.4187,17.2239187 L114.4187,31.100512 L122.328715,31.100512 L122.328715,28.0453636 L118.031362,28.0453636 L118.031362,25.6524833 L122.106769,25.6524833 L122.106769,22.5983254 L118.031362,22.5983254 L118.031362,20.2800574 L122.328715,20.2800574 L122.328715,20.2800574 Z M128.670223,23.6825167 L123.230392,31.100512 L127.601508,31.100512 L130.792438,26.5725933 L133.702877,31.100512 L138.056792,31.100512 L132.911015,23.6825167 L137.3549,17.2239187 L132.911015,17.2239187 L130.792438,20.8125789 L128.670223,17.2239187 L124.226669,17.2239187 L128.670223,23.6825167 L128.670223,23.6825167 Z M139.105662,31.100512 L142.720308,31.100512 L142.720308,17.2239187 L139.105662,17.2239187 L139.105662,31.100512 Z M155.018308,17.5573636 C153.948269,17.114311 152.878231,16.8564689 151.716238,16.8564689 C149.762715,16.8564689 147.789015,17.7032871 146.425585,19.1011148 C145.098208,20.4632871 144.379115,22.2853493 144.379115,24.1807033 C144.379115,26.2411292 145.081338,28.0453636 146.610154,29.4263541 C148.048338,30.7327321 149.893038,31.4676316 151.828369,31.4676316 C152.952654,31.4676316 153.820262,31.1919617 155.018308,30.8235215 L155.018308,26.4999617 C154.260846,27.4009234 153.082977,27.9707512 151.9018,27.9707512 C149.651577,27.9707512 148.140954,26.3893636 148.140954,24.1978708 C148.140954,22.0456651 149.633715,20.352689 151.846231,20.352689 C153.082977,20.352689 154.280031,20.8871914 155.018308,21.8805933 L155.018308,17.5573636 L155.018308,17.5573636 Z M164.236185,16.7640287 C160.235531,16.7640287 156.549438,19.7082488 156.549438,23.9040431 C156.549438,28.3943254 159.774438,31.5604019 164.236185,31.5604019 C168.699254,31.5604019 171.925246,28.3943254 171.925246,23.9040431 C171.925246,19.7082488 168.237169,16.7640287 164.236185,16.7640287 L164.236185,16.7640287 Z M164.236185,20.2599187 C166.395777,20.2599187 168.163408,22.0083589 168.163408,23.9228612 C168.163408,26.3157416 166.395777,28.0631914 164.236185,28.0631914 C162.080231,28.0631914 160.309954,26.3157416 160.309954,23.9228612 C160.309954,22.0083589 162.080231,20.2599187 164.236185,20.2599187 L164.236185,20.2599187 Z" id="Fill-1" fill="#FFFFFF"></path>
                    <path d="M0.0413461538,31.1024928 L3.62622308,31.1024928 L4.78358462,23.1391005 L4.81996923,23.1391005 L8.00031538,31.1024928 L9.43320769,31.1024928 L12.7607462,23.1391005 L12.7971308,23.1391005 L13.8076308,31.1024928 L17.4103692,31.1024928 L15.3149462,17.2698086 L11.7313923,17.2698086 L8.75347692,24.6620526 L5.94226923,17.2698086 L2.39476923,17.2698086 L0.0413461538,31.1024928 M36.5291615,17.2698086 L32.6125231,17.2698086 L38.4410077,31.1024928 L41.2340231,31.1024928 L47.1511538,17.2698086 L43.2365,17.2698086 L39.8725769,25.6716316 L36.5291615,17.2698086 M55.9764077,20.3153828 L55.9764077,17.2698086 L48.0921923,17.2698086 L48.0921923,31.1024928 L55.9764077,31.1024928 L55.9764077,28.0569187 L51.6962538,28.0569187 L51.6962538,25.6716316 L55.7557846,25.6716316 L55.7557846,22.6260574 L51.6962538,22.6260574 L51.6962538,20.3153828 L55.9764077,20.3153828 M65.4311154,25.4332679 C67.3985308,25.0836459 68.4642692,23.4342488 68.4642692,21.5273397 C68.4642692,18.5732153 66.3873692,17.2698086 63.6495923,17.2698086 L58.265,17.2698086 L58.265,31.1024928 L61.8667462,31.1024928 L61.8667462,25.7822297 L61.9021385,25.7822297 L65.3021154,31.1024928 L69.7873462,31.1024928 L65.4311154,25.4332679 M61.8667462,20.021555 L62.2157077,20.021555 C63.3912615,20.021555 64.7133462,20.2427512 64.7133462,21.746555 C64.7133462,23.2500287 63.3912615,23.469244 62.2157077,23.469244 L61.8667462,23.469244 L61.8667462,20.021555" id="Fill-2" fill="#FFFFFF"></path>
                    <path d="M25.6084846,16.8118995 C21.6213923,16.8118995 17.9458846,19.7465455 17.9458846,23.9294641 C17.9458846,28.4042297 21.1616231,31.5604019 25.6084846,31.5604019 C30.0573308,31.5604019 33.2730692,28.4042297 33.2730692,23.9294641 C33.2730692,19.7465455 29.5975615,16.8118995 25.6084846,16.8118995 L25.6084846,16.8118995 Z M25.6084846,28.0740861 C23.4598077,28.0740861 21.6951538,26.3319187 21.6951538,23.9486124 C21.6951538,22.0403828 23.4598077,20.2962344 25.6084846,20.2962344 C27.7591462,20.2962344 29.5238,22.0403828 29.5238,23.9486124 C29.5238,26.3319187 27.7591462,28.0740861 25.6084846,28.0740861 L25.6084846,28.0740861 Z" id="Fill-3" fill="#FFFFFF"></path>
                    <path d="M72.5304154,59.2736411 C72.5304154,64.3542201 68.4550077,68.47111 63.4266538,68.47111 C58.3992923,68.47111 54.3238846,64.3542201 54.3238846,59.2736411 C54.3238846,54.1930622 58.3992923,50.0768325 63.4266538,50.0768325 C68.4550077,50.0768325 72.5304154,54.1930622 72.5304154,59.2736411" id="Fill-4" fill="#C1293A"></path>
                    <path d="M59.2070308,53.3511962 C59.2070308,53.3511962 59.9816923,53.0339282 60.7186462,52.9474306 C61.5998154,52.8166938 62.6040308,53.0094976 62.6040308,53.0094976 C62.6040308,53.0094976 62.1472385,53.5406986 61.7599077,54.3010191 C61.1893308,55.4159139 61.0441231,56.2264163 61.0441231,56.2264163 C61.0441231,56.2264163 60.5618615,56.1135072 59.6730846,56.1560957 C58.7856308,56.1993445 58.1882615,56.352201 58.1882615,56.352201 C58.1882615,56.352201 58.2702923,55.4350622 58.5521077,54.6298421 C58.8335923,53.8256124 59.2070308,53.3511962 59.2070308,53.3511962" id="Fill-5" fill="#FFFFFF"></path>
                    <path d="M83.4011462,41.1685694 C83.4011462,45.5030239 79.9227769,49.0160813 75.6330308,49.0160813 C71.3439462,49.0160813 67.8669,45.5030239 67.8669,41.1685694 C67.8669,36.8347751 71.3439462,33.3217177 75.6330308,33.3217177 C79.9227769,33.3217177 83.4011462,36.8347751 83.4011462,41.1685694" id="Fill-6" fill="#C1293A"></path>
                    <path d="M72.0332692,36.1160526 C72.0332692,36.1160526 72.6938154,35.8443445 73.3229385,35.7710526 C74.0751077,35.6601244 74.9308077,35.8251962 74.9308077,35.8251962 C74.9308077,35.8251962 74.5414923,36.277823 74.2107231,36.9272153 C73.7264769,37.876378 73.6004538,38.5693493 73.6004538,38.5693493 C73.6004538,38.5693493 73.1896385,38.4732775 72.4311846,38.5095933 C71.6737231,38.5468995 71.1646692,38.6756555 71.1646692,38.6756555 C71.1646692,38.6756555 71.2351231,37.8928852 71.4742692,37.2075072 C71.7154,36.5214689 72.0332692,36.1160526 72.0332692,36.1160526" id="Fill-7" fill="#FFFFFF"></path>
                    <path d="M90.8242692,24.3352105 C90.8242692,28.2005311 87.7239692,31.3326029 83.8979615,31.3326029 C80.0732769,31.3326029 76.9729769,28.2005311 76.9729769,24.3352105 C76.9729769,20.4705502 80.0732769,17.3378182 83.8979615,17.3378182 C87.7239692,17.3378182 90.8242692,20.4705502 90.8242692,24.3352105" id="Fill-8" fill="#D1D1CE"></path>
                    <path d="M80.6888385,19.8297416 C80.6888385,19.8297416 81.2766154,19.589067 81.8369385,19.5230383 C82.5077385,19.4239952 83.2728077,19.5699187 83.2728077,19.5699187 C83.2728077,19.5699187 82.9251692,19.9736842 82.6294615,20.5537464 C82.1964846,21.401555 82.0853462,22.017933 82.0853462,22.017933 C82.0853462,22.017933 81.7185231,21.9317656 81.0421,21.9637895 C80.3666692,21.9964737 79.9131846,22.1126842 79.9131846,22.1126842 C79.9131846,22.1126842 79.9750385,21.4141005 80.1897077,20.8030048 C80.4040462,20.1919091 80.6888385,19.8297416 80.6888385,19.8297416" id="Fill-9" fill="#FFFFFF"></path>
                    <path d="M77.7817077,12.4648995 C77.7817077,15.1572201 75.6224462,17.3378182 72.9590923,17.3378182 C70.2954077,17.3378182 68.1358154,15.1572201 68.1358154,12.4648995 C68.1358154,9.7752201 70.2954077,7.59429187 72.9590923,7.59429187 C75.6224462,7.59429187 77.7817077,9.7752201 77.7817077,12.4648995" id="Fill-10" fill="#217C40"></path>
                    <path d="M70.7240846,9.32688517 C70.7240846,9.32688517 71.1325846,9.16082297 71.5232231,9.11493301 C71.9906,9.04461244 72.5218154,9.14695694 72.5218154,9.14695694 C72.5218154,9.14695694 72.2816769,9.42790909 72.0746154,9.83167464 C71.7739462,10.4226316 71.6972077,10.8518182 71.6972077,10.8518182 C71.6972077,10.8518182 71.4408615,10.7910718 70.9695154,10.814512 C70.4991615,10.8379522 70.1842692,10.9178469 70.1842692,10.9178469 C70.1842692,10.9178469 70.2269385,10.4322057 70.3764462,10.005 C70.5256231,9.58043541 70.7240846,9.32688517 70.7240846,9.32688517" id="Fill-11" fill="#FFFFFF"></path>
                    <path d="M67.7345923,3.91946411 C67.7345923,6.14925359 65.9454615,7.95513876 63.7402231,7.95513876 C61.5326692,7.95513876 59.7448615,6.14925359 59.7448615,3.91946411 C59.7448615,1.69066507 61.5326692,-0.11654067 63.7402231,-0.11654067 C65.9454615,-0.11654067 67.7345923,1.69066507 67.7345923,3.91946411" id="Fill-12" fill="#217C40"></path>
                    <path d="M61.8882462,1.32123445 C61.8882462,1.32123445 62.2272846,1.18158373 62.5504462,1.14427751 C62.9377769,1.08584211 63.3783615,1.17101914 63.3783615,1.17101914 C63.3783615,1.17101914 63.1779154,1.40410048 63.0072385,1.73853589 C62.7585,2.22615789 62.6936692,2.58205263 62.6936692,2.58205263 C62.6936692,2.58205263 62.4813154,2.53187081 62.092,2.55101914 C61.7013615,2.57016746 61.4410462,2.63850718 61.4410462,2.63850718 C61.4410462,2.63850718 61.4774308,2.23573206 61.5988231,1.88247847 C61.7238538,1.52856459 61.8882462,1.32123445 61.8882462,1.32123445" id="Fill-13" fill="#FFFFFF"></path>
                </g>
            </g>
        </g>
    </g>
</svg>